<svg xmlns="http://www.w3.org/2000/svg" viewBox="0 0 64 64">
  <defs>
    <linearGradient id="g" x1="0" x2="1" y1="0" y2="1">
      <stop offset="0%" stop-color="#60a5fa"/>
      <stop offset="100%" stop-color="#2563eb"/>
    </linearGradient>
  </defs>
  <rect width="64" height="64" rx="12" fill="url(#g)"/>
  <g fill="#fff">
    <path d="M20 24a8 8 0 0 1 8-8h8l8 8v16a8 8 0 0 1-8 8H28a8 8 0 0 1-8-8V24zm10-2h6l6 6v12a6 6 0 0 1-6 6H28a6 6 0 0 1-6-6V26a6 6 0 0 1 6-6z"/>
    <circle cx="32" cy="34" r="6"/>
  </g>
</svg>



